<svg xmlns="http://www.w3.org/2000/svg" viewBox="0 0 1024 700">
<defs>
 <linearGradient id="bg" x1="0" y1="0" x2="1" y2="1"><stop stop-color="#020817"/><stop offset=".55" stop-color="#071a35"/><stop offset="1" stop-color="#12052b"/></linearGradient>
 <radialGradient id="g"><stop stop-color="#3f8cff" stop-opacity=".38"/><stop offset="1" stop-color="#3f8cff" stop-opacity="0"/></radialGradient>
 <linearGradient id="metal" x1="0" y1="0" x2="1" y2="1"><stop stop-color="#12243d"/><stop offset=".5" stop-color="#071323"/><stop offset="1" stop-color="#1c3452"/></linearGradient>
 <filter id="glow"><feGaussianBlur stdDeviation="10" result="b"/><feMerge><feMergeNode in="b"/><feMergeNode in="SourceGraphic"/></feMerge></filter>
</defs>
<rect width="1024" height="700" rx="40" fill="url(#bg)"/>
<ellipse cx="512" cy="430" rx="380" ry="230" fill="url(#g)"/>
<g opacity=".35" stroke="#3f8cff" fill="none">
 <ellipse cx="512" cy="570" rx="350" ry="58" stroke-width="3"/><ellipse cx="512" cy="570" rx="290" ry="42" stroke-width="2"/><ellipse cx="512" cy="570" rx="220" ry="30" stroke-width="2"/>
</g>
<g stroke="#3f8cff" stroke-linejoin="round" stroke-linecap="round" filter="url(#glow)">path d="M330 250 L660 210 L755 285 L425 335 Z" fill="url(#metal)" stroke-width="6"/><path d="M330 250 L425 335 L425 500 L330 420 Z" fill="#071323" stroke-width="6"/><path d="M425 335 L755 285 L755 450 L425 500 Z" fill="#0b1d35" stroke-width="6"/><circle cx="565" cy="395" r="62" fill="#020914" stroke-width="6"/><circle cx="565" cy="395" r="28" fill="#3f8cff" opacity=".8"/></g>
<g fill="#3f8cff" opacity=".7"><circle cx="130" cy="150" r="3"/><circle cx="860" cy="120" r="3"/><circle cx="770" cy="250" r="2"/><circle cx="220" cy="310" r="2"/><circle cx="900" cy="410" r="2"/></g>
</svg>